<svg xmlns="http://www.w3.org/2000/svg" width="47.073" height="53.961" viewBox="0 0 47.073 53.961">
  <g id="Group_14" data-name="Group 14" transform="translate(-299.659 -221.943)">
    <path id="Path_45" data-name="Path 45" d="M301.176,235.08h28.012a3.7,3.7,0,1,1,0,7.41H312.44a1.51,1.51,0,1,0,0,3.02h16.748a6.725,6.725,0,1,0,0-13.45H301.176a1.51,1.51,0,1,0,0,3.02Zm45.556,3.7a16.9,16.9,0,0,0-16.917-16.842H306.049a1.51,1.51,0,1,0,0,3.02h23.766a13.8,13.8,0,0,1,10.41,22.961,1.5,1.5,0,0,0,0,2,13.8,13.8,0,0,1-10.41,22.961H311.722V254.095a1.513,1.513,0,0,0-1.517-1.51h-8.978a1.51,1.51,0,1,0,0,3.02h7.461v18.789a1.514,1.514,0,0,0,1.517,1.51h19.609a16.823,16.823,0,0,0,13.5-26.981A16.77,16.77,0,0,0,346.732,238.784Zm-17.544,24.209h-3.269a1.51,1.51,0,1,0,0,3.02h3.269a6.725,6.725,0,1,0,0-13.45H315.731a1.51,1.51,0,1,0,0,3.02h13.457a3.7,3.7,0,1,1,0,7.41Z" transform="translate(0 0)" fill="#fff"/>
  </g>
</svg>
