<svg xmlns="http://www.w3.org/2000/svg" xmlns:xlink="http://www.w3.org/1999/xlink" width="207.104" height="28.425" viewBox="0 0 207.104 28.425"><defs><linearGradient id="a" y1="0.5" x2="1" y2="0.5" gradientUnits="objectBoundingBox"><stop offset="0" stop-color="#d1001d"/><stop offset="0.382" stop-color="#002e6c"/><stop offset="0.454" stop-color="#004c8d"/><stop offset="0.531" stop-color="#0065a8"/><stop offset="0.614" stop-color="#0078bd"/><stop offset="0.707" stop-color="#0086cc"/><stop offset="0.816" stop-color="#008ed5"/><stop offset="0.982" stop-color="#0091d8"/></linearGradient></defs><path d="M260.257,705.022h-3.764v27.8h15.794v-3.162h-12.03Zm-19.305,13.5a9.083,9.083,0,0,0,2.3-1.048,6.866,6.866,0,0,0,1.63-1.455,5.772,5.772,0,0,0,.97-1.766,6.163,6.163,0,0,0,.32-1.979,7.71,7.71,0,0,0-.572-3.036,5.669,5.669,0,0,0-1.766-2.28,8.561,8.561,0,0,0-3.046-1.435,16.955,16.955,0,0,0-4.414-.5h-8.867v27.8h9.837a13.762,13.762,0,0,0,4.142-.572,8.864,8.864,0,0,0,3.066-1.62,6.9,6.9,0,0,0,1.9-2.5,7.808,7.808,0,0,0,.65-3.221,5.746,5.746,0,0,0-1.552-4.191A8.578,8.578,0,0,0,240.952,718.526ZM231.27,707.99h5.1a7.45,7.45,0,0,1,4.579,1.145,4.26,4.26,0,0,1,1.474,3.589,4.964,4.964,0,0,1-.369,1.931,3.8,3.8,0,0,1-1.135,1.5,5.579,5.579,0,0,1-1.931.97,9.653,9.653,0,0,1-2.755.349H231.27Zm11.778,18.85a4.023,4.023,0,0,1-1.1,1.591,5.156,5.156,0,0,1-1.9,1.038,9.137,9.137,0,0,1-2.765.369H231.27v-9.682h6a7.152,7.152,0,0,1,4.608,1.251,4.175,4.175,0,0,1,1.523,3.406A5.684,5.684,0,0,1,243.048,726.84Zm37.97,5.986h3.764v-27.8h-3.764Zm96.111-27.532a1.21,1.21,0,0,0-.437.621l-5.763,19.325a8.328,8.328,0,0,0-.252,1.087q-.1.582-.213,1.222a19.079,19.079,0,0,0-.621-2.309l-6.5-19.325a1.378,1.378,0,0,0-.456-.64,1.293,1.293,0,0,0-.824-.252h-1.087a1.249,1.249,0,0,0-.824.281,1.421,1.421,0,0,0-.456.611l-6.539,19.325a10.115,10.115,0,0,0-.311,1.115q-.136.612-.272,1.271-.117-.66-.242-1.261t-.281-1.125l-5.743-19.325a1.234,1.234,0,0,0-.446-.64,1.335,1.335,0,0,0-.834-.252H341.9l8.673,27.8h3.376l7.082-21.207q.1-.291.184-.65t.184-.747a11.6,11.6,0,0,0,.388,1.4l7.043,21.207h3.376l8.673-27.8h-2.93A1.276,1.276,0,0,0,377.129,705.293Zm17.413-.272-11.117,27.8h2.91a1.237,1.237,0,0,0,.815-.272,1.513,1.513,0,0,0,.466-.621l2.6-6.713h12.476l2.6,6.713a1.545,1.545,0,0,0,.465.64,1.251,1.251,0,0,0,.815.252h2.911l-11.118-27.8ZM391.264,722.5l4.366-11.293q.194-.5.4-1.174t.417-1.465a21.132,21.132,0,0,0,.834,2.619l4.365,11.312Zm40.009-17.482a1.1,1.1,0,0,0-.786.281,2.476,2.476,0,0,0-.475.592L423.666,716.7a10.508,10.508,0,0,0-.64,1.261q-.253.6-.465,1.2-.214-.582-.475-1.184a13.36,13.36,0,0,0-.65-1.28l-6.364-10.807a2.415,2.415,0,0,0-.5-.621,1.175,1.175,0,0,0-.8-.252h-3.3l10.186,16.745v11.059H424.4V721.766l10.206-16.745ZM309.8,719.477a8.6,8.6,0,0,0-2.134-1.349q-1.193-.533-2.445-.961t-2.445-.824a11.569,11.569,0,0,1-2.134-.941,4.919,4.919,0,0,1-1.514-1.309,3.137,3.137,0,0,1-.572-1.931,4.344,4.344,0,0,1,.33-1.7,3.779,3.779,0,0,1,.98-1.368,4.737,4.737,0,0,1,1.62-.922,6.748,6.748,0,0,1,2.231-.339,6.942,6.942,0,0,1,2.28.329,9.026,9.026,0,0,1,1.61.728,12.221,12.221,0,0,1,1.106.727,1.341,1.341,0,0,0,.766.33.817.817,0,0,0,.5-.146,1.506,1.506,0,0,0,.369-.437l.912-1.784a9.787,9.787,0,0,0-3.356-2.135,11.778,11.778,0,0,0-4.249-.737,9.845,9.845,0,0,0-3.677.64,8.037,8.037,0,0,0-2.687,1.707,7.786,7.786,0,0,0-1.659,8.392,6.237,6.237,0,0,0,1.5,2.086,7.936,7.936,0,0,0,2.125,1.358,24.634,24.634,0,0,0,2.445.922l2.444.776a10.48,10.48,0,0,1,2.125.922,4.746,4.746,0,0,1,1.5,1.348,3.486,3.486,0,0,1,.573,2.067,5.348,5.348,0,0,1-.388,2.076,4.505,4.505,0,0,1-1.116,1.6,5.066,5.066,0,0,1-1.775,1.038,7.16,7.16,0,0,1-2.386.369,7.5,7.5,0,0,1-2.726-.437,9.947,9.947,0,0,1-1.9-.961,15.53,15.53,0,0,1-1.31-.96,1.541,1.541,0,0,0-.931-.436.89.89,0,0,0-.495.145,1.433,1.433,0,0,0-.379.359l-1.087,1.785a11.53,11.53,0,0,0,3.794,2.649,12.059,12.059,0,0,0,4.919.98,10.775,10.775,0,0,0,3.948-.679,8.485,8.485,0,0,0,2.93-1.863,7.9,7.9,0,0,0,1.814-2.784,9.385,9.385,0,0,0,.621-3.425,6.652,6.652,0,0,0-.572-2.91A6.153,6.153,0,0,0,309.8,719.477Zm24.447,0a8.6,8.6,0,0,0-2.134-1.349q-1.193-.533-2.445-.961t-2.445-.824a11.568,11.568,0,0,1-2.134-.941,4.915,4.915,0,0,1-1.514-1.309,3.137,3.137,0,0,1-.572-1.931,4.343,4.343,0,0,1,.33-1.7,3.779,3.779,0,0,1,.98-1.368,4.733,4.733,0,0,1,1.62-.922,6.747,6.747,0,0,1,2.231-.339,6.942,6.942,0,0,1,2.28.329,9.029,9.029,0,0,1,1.61.728,12.287,12.287,0,0,1,1.106.727,1.34,1.34,0,0,0,.766.33.819.819,0,0,0,.5-.146,1.5,1.5,0,0,0,.369-.437l.912-1.784a9.783,9.783,0,0,0-3.357-2.135,11.78,11.78,0,0,0-4.249-.737,9.848,9.848,0,0,0-3.677.64,8.04,8.04,0,0,0-2.687,1.707,7.786,7.786,0,0,0-1.659,8.392,6.239,6.239,0,0,0,1.5,2.086,7.938,7.938,0,0,0,2.125,1.358,24.634,24.634,0,0,0,2.445.922l2.444.776a10.483,10.483,0,0,1,2.125.922,4.747,4.747,0,0,1,1.5,1.348,3.486,3.486,0,0,1,.573,2.067,5.348,5.348,0,0,1-.388,2.076,4.505,4.505,0,0,1-1.116,1.6,5.067,5.067,0,0,1-1.775,1.038,7.16,7.16,0,0,1-2.386.369,7.5,7.5,0,0,1-2.726-.437,9.947,9.947,0,0,1-1.9-.961,15.524,15.524,0,0,1-1.31-.96,1.541,1.541,0,0,0-.931-.436.889.889,0,0,0-.495.145,1.433,1.433,0,0,0-.379.359l-1.087,1.785a11.529,11.529,0,0,0,3.794,2.649,12.059,12.059,0,0,0,4.918.98,10.776,10.776,0,0,0,3.948-.679,8.485,8.485,0,0,0,2.93-1.863,7.891,7.891,0,0,0,1.814-2.784,9.393,9.393,0,0,0,.621-3.425,6.657,6.657,0,0,0-.572-2.91A6.151,6.151,0,0,0,334.249,719.477Z" transform="translate(-227.506 -704.711)" fill="url(#a)"/></svg>