<svg xmlns="http://www.w3.org/2000/svg" xmlns:xlink="http://www.w3.org/1999/xlink" width="113.403" height="312.672" viewBox="0 0 113.403 312.672"><defs><linearGradient id="a" y1="0.5" x2="1" y2="0.5" gradientUnits="objectBoundingBox"><stop offset="0" stop-color="#d1001d"/><stop offset="0.382" stop-color="#002e6c"/><stop offset="0.454" stop-color="#004c8d"/><stop offset="0.531" stop-color="#0065a8"/><stop offset="0.614" stop-color="#0078bd"/><stop offset="0.707" stop-color="#0086cc"/><stop offset="0.816" stop-color="#008ed5"/><stop offset="0.982" stop-color="#0091d8"/></linearGradient><clipPath id="b"><rect width="8" height="209" transform="translate(34 1287)" fill="#fff"/></clipPath><clipPath id="c"><rect width="8" height="57" transform="translate(54 1439)" fill="#fff"/></clipPath></defs><g transform="translate(-14 -1183.328)"><g transform="translate(-101.521 200)"><g transform="translate(133.521 984.472)" opacity="0.913" style="isolation:isolate"><path d="M302.733,248.567h56.772a7.509,7.509,0,1,1,0,15.017H325.562a3.061,3.061,0,1,0,0,6.121h33.943a13.63,13.63,0,1,0,0-27.26H302.733a3.061,3.061,0,1,0,0,6.121Zm92.328,7.509a34.249,34.249,0,0,0-34.287-34.133H312.609a3.061,3.061,0,1,0,0,6.121h48.166a27.979,27.979,0,0,1,21.1,46.536,3.05,3.05,0,0,0,0,4.05,27.978,27.978,0,0,1-21.1,46.536H324.108V287.105a3.067,3.067,0,0,0-3.074-3.061h-18.2a3.061,3.061,0,1,0,0,6.121h15.122v38.081a3.068,3.068,0,0,0,3.075,3.061h39.741a34.1,34.1,0,0,0,27.369-54.682A33.988,33.988,0,0,0,395.062,256.076Zm-35.556,49.065H352.88a3.061,3.061,0,1,0,0,6.121h6.625a13.63,13.63,0,1,0,0-27.26H332.232a3.061,3.061,0,1,0,0,6.121h27.274a7.509,7.509,0,1,1,0,15.017Z" transform="translate(-299.659 -221.943)" fill="#0d0d0d"/></g><g transform="translate(133.521 983.328)"><path d="M302.733,248.567h56.772a7.509,7.509,0,1,1,0,15.017H325.562a3.061,3.061,0,1,0,0,6.121h33.943a13.63,13.63,0,1,0,0-27.26H302.733a3.061,3.061,0,1,0,0,6.121Zm92.328,7.509a34.249,34.249,0,0,0-34.287-34.133H312.609a3.061,3.061,0,1,0,0,6.121h48.166a27.979,27.979,0,0,1,21.1,46.536,3.05,3.05,0,0,0,0,4.05,27.978,27.978,0,0,1-21.1,46.536H324.108V287.105a3.067,3.067,0,0,0-3.074-3.061h-18.2a3.061,3.061,0,1,0,0,6.121h15.122v38.081a3.068,3.068,0,0,0,3.075,3.061h39.741a34.1,34.1,0,0,0,27.369-54.682A33.988,33.988,0,0,0,395.062,256.076Zm-35.556,49.065H352.88a3.061,3.061,0,1,0,0,6.121h6.625a13.63,13.63,0,1,0,0-27.26H332.232a3.061,3.061,0,1,0,0,6.121h27.274a7.509,7.509,0,1,1,0,15.017Z" transform="translate(-299.659 -221.943)" fill="url(#a)"/></g></g><line x2="73.061" transform="translate(18 1479.061) rotate(-90)" fill="none" stroke="#d6d6d6" stroke-linecap="round" stroke-width="8" opacity="0.4"/><g clip-path="url(#b)"><path d="M350,1387.035V1102.958" transform="translate(-312 188)" fill="none" stroke="#1ba5de" stroke-linecap="round" stroke-miterlimit="10" stroke-width="8"/></g><g clip-path="url(#c)"><line x2="73.061" transform="translate(58 1515.92) rotate(-90)" fill="none" stroke="#d6d6d6" stroke-linecap="round" stroke-width="8" opacity="0.134"/></g></g></svg>