<svg xmlns="http://www.w3.org/2000/svg" xmlns:xlink="http://www.w3.org/1999/xlink" width="375" height="101.46" viewBox="0 0 375 101.46"><defs><linearGradient id="a" x1="0.105" y1="0.5" x2="1" y2="0.5" gradientUnits="objectBoundingBox"><stop offset="0" stop-color="#d1001d"/><stop offset="0.427" stop-color="#002e6c"/><stop offset="0.608" stop-color="#004c8d"/><stop offset="0.729" stop-color="#0065a8"/><stop offset="0.838" stop-color="#0078bd"/><stop offset="1" stop-color="#0091d8"/></linearGradient><linearGradient id="b" y1="0.5" x2="1" y2="0.5" gradientUnits="objectBoundingBox"><stop offset="0" stop-color="#661745"/><stop offset="1" stop-color="#1d2760"/></linearGradient><linearGradient id="c" y1="0.5" x2="1" y2="0.5" gradientUnits="objectBoundingBox"><stop offset="0" stop-color="#003b7a"/><stop offset="1" stop-color="#004787"/></linearGradient><linearGradient id="d" y1="0.5" x2="1" y2="0.5" gradientUnits="objectBoundingBox"><stop offset="0" stop-color="#015596"/><stop offset="1" stop-color="#0263a6"/></linearGradient></defs><g transform="translate(-273.367 -281.368)"><rect width="375" height="8" transform="translate(273.367 329.6)" fill="url(#a)"/><path d="M-145.106-21.615a20.628,20.628,0,0,1-3.81,12.4A22.581,22.581,0,0,1-159.6-1.345a46.985,46.985,0,0,1-16.535,2.59,54.01,54.01,0,0,1-20.52-3.785V-22.113a40.531,40.531,0,0,0,9.911,5.3,29.153,29.153,0,0,0,10.11,2.017,9.981,9.981,0,0,0,5.479-1.27,4.156,4.156,0,0,0,1.942-3.71,5.03,5.03,0,0,0-.971-3.063,9.537,9.537,0,0,0-2.938-2.465,54.732,54.732,0,0,0-7.3-3.138q-17.232-6.624-17.232-21.416a20.011,20.011,0,0,1,7.869-16.56q7.869-6.2,21.117-6.2,3.735,0,6.873.3t5.7.747q2.565.448,7.2,1.693V-51.7a36.775,36.775,0,0,0-17.73-4.931,10.942,10.942,0,0,0-5.777,1.345A4.138,4.138,0,0,0-174.59-51.6a4.621,4.621,0,0,0,1.768,3.71,33.149,33.149,0,0,0,7.4,3.81q11.106,4.482,15.713,9.812A18.712,18.712,0,0,1-145.106-21.615ZM-81.6-26.4q0,12.9-7.794,20.271t-21.79,7.371q-13.9,0-21.64-7.2T-140.574-25.8a26.59,26.59,0,0,1,3.636-14.095,23.642,23.642,0,0,1,10.359-9.164,35.763,35.763,0,0,1,15.489-3.187,34.642,34.642,0,0,1,15.713,3.337,24.29,24.29,0,0,1,10.21,9.264A25.225,25.225,0,0,1-81.6-26.4Zm-21.516.1q0-10.409-7.969-10.409T-119.058-25.8q0,11.5,8.068,11.5Q-103.121-14.294-103.121-26.3ZM-73.686,0V-75.5h21.217V0ZM-5.1,0h-25.2L-47.339-51h22.113L-19-23.159a64.409,64.409,0,0,1,1.644,10.11h.3q.1-1,.274-2.042T-9.388-51H12.625ZM40.167-64.746a9.112,9.112,0,0,1-3.262,7.271,12.764,12.764,0,0,1-8.591,2.789,12.45,12.45,0,0,1-8.492-2.889,9.136,9.136,0,0,1-3.312-7.172,8.846,8.846,0,0,1,3.212-7.1,12.873,12.873,0,0,1,8.591-2.714,12.994,12.994,0,0,1,8.591,2.714A8.79,8.79,0,0,1,40.167-64.746ZM17.706,0V-51H38.922V0ZM82.2,0V-27.841q0-4.731-1.419-6.8a5.187,5.187,0,0,0-4.607-2.067,4.986,4.986,0,0,0-4.283,2.142,9.139,9.139,0,0,0-1.544,5.479V0H49.132V-51H70.349v7.969h.2a18.005,18.005,0,0,1,6.823-6.8,18.642,18.642,0,0,1,9.313-2.416q16.734,0,16.734,21.117V0Zm86.063-7.122q0,14.692-9.239,22.885t-26.969,8.193a56.271,56.271,0,0,1-9.264-.747,25.528,25.528,0,0,1-6.425-1.693V4.881a28.458,28.458,0,0,0,7.471,3.188,28.742,28.742,0,0,0,7.62,1.2q7.122,0,11.405-3.437a11.1,11.1,0,0,0,4.283-9.114V-6.425h-.2a16.483,16.483,0,0,1-6.3,5.578,18.3,18.3,0,0,1-8.591,2.092q-9.861,0-15.589-6.848t-5.728-18.9A33.8,33.8,0,0,1,113.729-39.1a22.771,22.771,0,0,1,8.317-9.737A21.358,21.358,0,0,1,133.8-52.245q8.815,0,13.148,6.524h.2V-51h21.117ZM147.5-26.944a11.447,11.447,0,0,0-2.017-7.122,6.406,6.406,0,0,0-5.354-2.64,6.593,6.593,0,0,0-5.728,3.188A15.049,15.049,0,0,0,132.256-25a14.738,14.738,0,0,0,1.793,7.819,6.19,6.19,0,0,0,5.678,2.889,6.578,6.578,0,0,0,5.7-2.963A13.647,13.647,0,0,0,147.5-25.2Z" transform="translate(475.367 357.872)" fill="#0d0d0d" stroke="#fff" stroke-linecap="round" stroke-width="2"/><rect width="61" height="8" transform="translate(379.367 329.6)" fill="url(#b)"/><rect width="25" height="8" transform="translate(496.367 329.6)" fill="url(#c)"/><rect width="23" height="8" transform="translate(559.367 329.6)" fill="url(#d)"/></g></svg>