<svg xmlns="http://www.w3.org/2000/svg" width="80.25" height="81.881" viewBox="0 0 80.25 81.881"><g transform="translate(0.707 0.707)"><g transform="translate(20.207 21.476)" fill="none" stroke="#fff" stroke-linecap="round" stroke-miterlimit="10" stroke-width="1"><circle cx="19.211" cy="19.211" r="19.211" stroke="none"/><circle cx="19.211" cy="19.211" r="18.711" fill="none"/></g><line y1="20.661" transform="translate(39.418 6.796)" fill="none" stroke="#fff" stroke-linecap="round" stroke-miterlimit="10" stroke-width="1"/><path d="M778.251,368.722l8.971-8.971,8.971,8.971" transform="translate(-747.804 -359.751)" fill="none" stroke="#fff" stroke-linecap="round" stroke-miterlimit="10" stroke-width="1" fill-rule="evenodd"/><line x2="20.661" transform="translate(51.379 40.233)" fill="none" stroke="#fff" stroke-linecap="round" stroke-miterlimit="10" stroke-width="1"/><path d="M887,446l8.971,8.971L887,463.943" transform="translate(-817.135 -414.738)" fill="none" stroke="#fff" stroke-linecap="round" stroke-miterlimit="10" stroke-width="1" fill-rule="evenodd"/><line y2="20.661" transform="translate(39.418 53.01)" fill="none" stroke="#fff" stroke-linecap="round" stroke-miterlimit="10" stroke-width="1"/><path d="M796.193,557l-8.971,8.971L778.251,557" transform="translate(-747.804 -485.504)" fill="none" stroke="#fff" stroke-linecap="round" stroke-miterlimit="10" stroke-width="1" fill-rule="evenodd"/><line x1="20.661" transform="translate(6.796 40.233)" fill="none" stroke="#fff" stroke-linecap="round" stroke-miterlimit="10" stroke-width="1"/><path d="M703.222,463.943l-8.971-8.971L703.222,446" transform="translate(-694.251 -414.738)" fill="none" stroke="#fff" stroke-linecap="round" stroke-miterlimit="10" stroke-width="1" fill-rule="evenodd"/><circle cx="4.35" cy="4.35" r="4.35" transform="translate(35.25 36.518)" fill="none" stroke="#1ba5de" stroke-linecap="round" stroke-miterlimit="10" stroke-width="1"/></g></svg>