<svg xmlns="http://www.w3.org/2000/svg" width="74.601" height="71.955" viewBox="0 0 74.601 71.955"><g transform="translate(0.5 0.5)"><g transform="translate(8.63 11.675)"><circle cx="24.694" cy="24.694" r="24.694" transform="translate(0.632 0.632)" fill="none" stroke="#fff" stroke-linecap="round" stroke-miterlimit="10" stroke-width="1"/></g><path d="M565.768,380.6a33.956,33.956,0,0,1-67.911,0" transform="translate(-497.857 -343.601)" fill="none" stroke="#1ba5de" stroke-linecap="round" stroke-miterlimit="10" stroke-width="1"/><path d="M575.04,310.029a33.959,33.959,0,0,1,30.921,33.822" transform="translate(-538.05 -306.851)" fill="none" stroke="#fff" stroke-linecap="round" stroke-miterlimit="10" stroke-width="1" stroke-dasharray="4.412"/><line y1="5.127" transform="translate(33.914 12.7)" fill="none" stroke="#fff" stroke-linecap="round" stroke-miterlimit="10" stroke-width="1"/><path d="M627.637,385.133l5.6-5.6,5.6,5.6" transform="translate(-565.44 -343.046)" fill="none" stroke="#1ba5de" stroke-linecap="round" stroke-miterlimit="10" stroke-width="1"/><line x2="5.127" transform="translate(53.398 37.244)" fill="none" stroke="#fff" stroke-linecap="round" stroke-miterlimit="10" stroke-width="1"/><line y2="5.127" transform="translate(33.914 56.282)" fill="none" stroke="#fff" stroke-linecap="round" stroke-miterlimit="10" stroke-width="1"/><line x1="5.127" transform="translate(9.303 37.244)" fill="none" stroke="#fff" stroke-linecap="round" stroke-miterlimit="10" stroke-width="1"/><circle cx="2.841" cy="2.841" r="2.841" transform="translate(31.309 34.353)" fill="none" stroke="#fff" stroke-linecap="round" stroke-miterlimit="10" stroke-width="1"/><circle cx="2.841" cy="2.841" r="2.841" transform="translate(31.309)" fill="none" stroke="#fff" stroke-linecap="round" stroke-miterlimit="10" stroke-width="1"/><line y2="8.066" transform="translate(33.914 26.169)" fill="none" stroke="#fff" stroke-linecap="round" stroke-miterlimit="10" stroke-width="1"/><line x2="11.28" transform="translate(20.07 37.244)" fill="none" stroke="#fff" stroke-linecap="round" stroke-miterlimit="10" stroke-width="1"/></g></svg>