<svg xmlns="http://www.w3.org/2000/svg" width="62.31" height="84.39" viewBox="0 0 62.31 84.39"><g transform="translate(0.5 0.5)"><line y1="25.953" transform="translate(3.957)" fill="none" stroke="#fff" stroke-linecap="round" stroke-miterlimit="10" stroke-width="1"/><line y1="27.293" transform="translate(3.957 56.097)" fill="none" stroke="#fff" stroke-linecap="round" stroke-miterlimit="10" stroke-width="1"/><line y1="10.369" transform="translate(30.795)" fill="none" stroke="#fff" stroke-linecap="round" stroke-miterlimit="10" stroke-width="1" stroke-dasharray="4.412"/><line y1="10.926" transform="translate(30.795 72.464)" fill="none" stroke="#fff" stroke-linecap="round" stroke-miterlimit="10" stroke-width="1" stroke-dasharray="4.412"/><line y1="25.605" transform="translate(57.154)" fill="none" stroke="#fff" stroke-linecap="round" stroke-miterlimit="10" stroke-width="1"/><line y1="26.838" transform="translate(57.154 56.552)" fill="none" stroke="#fff" stroke-linecap="round" stroke-miterlimit="10" stroke-width="1"/><g transform="translate(0 10.369)"><circle cx="30.655" cy="30.655" r="30.655" fill="none" stroke="#fff" stroke-linecap="round" stroke-miterlimit="10" stroke-width="1"/></g><g transform="translate(23.127 20.129)"><path d="M1120.153,364.815h-2.49a6.663,6.663,0,0,1-6.663-6.663v-2.49a6.663,6.663,0,0,1,6.663-6.663h2.49a6.663,6.663,0,0,1,6.663,6.663" transform="translate(-1111 -343.249)" fill="none" stroke="#1ba5de" stroke-linecap="round" stroke-miterlimit="10" stroke-width="1"/><path d="M1117.663,382h2.49a6.663,6.663,0,0,1,6.663,6.663v2.49a6.663,6.663,0,0,1-6.663,6.663h-2.49a6.663,6.663,0,0,1-6.663-6.663v-2.49" transform="translate(-1111 -360.434)" fill="none" stroke="#1ba5de" stroke-linecap="round" stroke-miterlimit="10" stroke-width="1"/><line y2="5.751" transform="translate(7.668)" fill="none" stroke="#1ba5de" stroke-linecap="round" stroke-miterlimit="10" stroke-width="1"/><line y2="5.751" transform="translate(7.668 37.382)" fill="none" stroke="#1ba5de" stroke-linecap="round" stroke-miterlimit="10" stroke-width="1"/></g></g></svg>