<svg xmlns="http://www.w3.org/2000/svg" xmlns:xlink="http://www.w3.org/1999/xlink" width="500.945" height="989" viewBox="0 0 500.945 989"><defs><linearGradient id="a" y1="0.5" x2="1" y2="0.5" gradientUnits="objectBoundingBox"><stop offset="0" stop-color="#d1001d"/><stop offset="0.382" stop-color="#002e6c"/><stop offset="0.454" stop-color="#004c8d"/><stop offset="0.531" stop-color="#0065a8"/><stop offset="0.614" stop-color="#0078bd"/><stop offset="0.707" stop-color="#0086cc"/><stop offset="0.816" stop-color="#008ed5"/><stop offset="0.982" stop-color="#0091d8"/></linearGradient></defs><g transform="translate(-67.5 -961)"><path d="M258,172.343V552a60,60,0,0,0,60,60h63.762" transform="translate(-142.5 1330.5)" fill="none" stroke="#1ba5de" stroke-linecap="round" stroke-miterlimit="10" stroke-width="15"/><line x1="145" transform="translate(75 1317) rotate(-90)" fill="none" stroke="#d6d6d6" stroke-linecap="round" stroke-width="15" opacity="0.129"/><line x1="76" transform="translate(157 1210) rotate(-90)" fill="none" stroke="#d6d6d6" stroke-linecap="round" stroke-width="15" opacity="0.399"/><path d="M258,670.328V175a60,60,0,0,1,60-60h35.482" transform="translate(-142.5 917.5)" fill="none" stroke="#1ba5de" stroke-linecap="round" stroke-miterlimit="10" stroke-width="15"/><g transform="translate(286 964.385)" opacity="0.913" style="isolation:isolate"><path d="M308.761,300.766H476.837a22.23,22.23,0,1,1,0,44.459H376.346a9.061,9.061,0,1,0,0,18.123H476.837a40.352,40.352,0,1,0,0-80.7H308.761a9.061,9.061,0,1,0,0,18.122ZM582.1,323c0-55.72-45.535-101.053-101.508-101.053H338a9.061,9.061,0,1,0,0,18.122H480.6c45.934,0,83.3,37.2,83.3,82.931a82.6,82.6,0,0,1-20.843,54.841,9.029,9.029,0,0,0,0,11.991A82.61,82.61,0,0,1,563.9,444.669c0,45.729-37.37,82.931-83.3,82.931H372.042V414.86a9.081,9.081,0,0,0-9.1-9.061H309.068a9.061,9.061,0,1,0,0,18.122h44.769V536.66a9.082,9.082,0,0,0,9.1,9.062H480.6c55.972,0,101.508-45.333,101.508-101.053a100.624,100.624,0,0,0-20.479-60.836A100.622,100.622,0,0,0,582.1,323ZM476.837,468.255H457.224a9.061,9.061,0,1,0,0,18.122h19.614a40.352,40.352,0,1,0,0-80.7H396.092a9.061,9.061,0,1,0,0,18.123h80.745a22.23,22.23,0,1,1,0,44.46Z" transform="translate(-299.659 -221.943)" fill="#0d0d0d"/></g><g transform="translate(286 961)"><path d="M308.761,300.766H476.837a22.23,22.23,0,1,1,0,44.459H376.346a9.061,9.061,0,1,0,0,18.123H476.837a40.352,40.352,0,1,0,0-80.7H308.761a9.061,9.061,0,1,0,0,18.122ZM582.1,323c0-55.72-45.535-101.053-101.508-101.053H338a9.061,9.061,0,1,0,0,18.122H480.6c45.934,0,83.3,37.2,83.3,82.931a82.6,82.6,0,0,1-20.843,54.841,9.029,9.029,0,0,0,0,11.991A82.61,82.61,0,0,1,563.9,444.669c0,45.729-37.37,82.931-83.3,82.931H372.042V414.86a9.081,9.081,0,0,0-9.1-9.061H309.068a9.061,9.061,0,1,0,0,18.122h44.769V536.66a9.082,9.082,0,0,0,9.1,9.062H480.6c55.972,0,101.508-45.333,101.508-101.053a100.624,100.624,0,0,0-20.479-60.836A100.622,100.622,0,0,0,582.1,323ZM476.837,468.255H457.224a9.061,9.061,0,1,0,0,18.122h19.614a40.352,40.352,0,1,0,0-80.7H396.092a9.061,9.061,0,1,0,0,18.123h80.745a22.23,22.23,0,1,1,0,44.46Z" transform="translate(-299.659 -221.943)" fill="url(#a)"/></g></g></svg>